<mxfile host="app.diagrams.net" modified="2024-06-11T20:57:59.119Z" agent="Mozilla/5.0 (Windows NT 10.0; Win64; x64; rv:126.0) Gecko/20100101 Firefox/126.0" etag="BV9AUryi6cxfExbhAXe6" version="24.5.2" type="device">
  <diagram name="Page-1" id="W5o7mGowTOyntK7vz6Kj">
    <mxGraphModel dx="2074" dy="1106" grid="1" gridSize="10" guides="1" tooltips="1" connect="1" arrows="1" fold="1" page="1" pageScale="1" pageWidth="827" pageHeight="1169" math="0" shadow="0">
      <root>
        <mxCell id="0" />
        <mxCell id="1" parent="0" />
        <mxCell id="egmOR8620CXydE9XviSe-43" value="" style="rounded=1;whiteSpace=wrap;html=1;arcSize=5;fillColor=#cfd6da;" parent="1" vertex="1">
          <mxGeometry x="40" y="240" width="740" height="420" as="geometry" />
        </mxCell>
        <mxCell id="egmOR8620CXydE9XviSe-1" value="&lt;b&gt;&lt;font style=&quot;font-size: 24px;&quot;&gt;Classificateur d&#39;intentions&lt;/font&gt;&lt;/b&gt;" style="rounded=1;whiteSpace=wrap;html=1;arcSize=5;" parent="1" vertex="1">
          <mxGeometry x="331" y="310" width="166" height="320" as="geometry" />
        </mxCell>
        <mxCell id="egmOR8620CXydE9XviSe-2" value="&lt;b&gt;What is your name ?&lt;/b&gt;" style="rounded=1;whiteSpace=wrap;html=1;" parent="1" vertex="1">
          <mxGeometry x="80" y="455" width="120" height="30" as="geometry" />
        </mxCell>
        <mxCell id="egmOR8620CXydE9XviSe-8" value="" style="endArrow=classic;html=1;rounded=0;exitX=1;exitY=0.5;exitDx=0;exitDy=0;" parent="1" source="egmOR8620CXydE9XviSe-2" target="egmOR8620CXydE9XviSe-1" edge="1">
          <mxGeometry width="50" height="50" relative="1" as="geometry">
            <mxPoint x="390" y="590" as="sourcePoint" />
            <mxPoint x="290" y="400" as="targetPoint" />
          </mxGeometry>
        </mxCell>
        <mxCell id="egmOR8620CXydE9XviSe-14" value="&lt;b&gt;How are you doing ?&lt;/b&gt;" style="rounded=1;whiteSpace=wrap;html=1;" parent="1" vertex="1">
          <mxGeometry x="80" y="400" width="120" height="30" as="geometry" />
        </mxCell>
        <mxCell id="egmOR8620CXydE9XviSe-15" value="" style="endArrow=classic;html=1;rounded=0;exitX=1;exitY=0.5;exitDx=0;exitDy=0;" parent="1" source="egmOR8620CXydE9XviSe-14" edge="1">
          <mxGeometry width="50" height="50" relative="1" as="geometry">
            <mxPoint x="390" y="535" as="sourcePoint" />
            <mxPoint x="331" y="415" as="targetPoint" />
          </mxGeometry>
        </mxCell>
        <mxCell id="egmOR8620CXydE9XviSe-18" value="&lt;b&gt;Thanks&lt;/b&gt;" style="rounded=1;whiteSpace=wrap;html=1;" parent="1" vertex="1">
          <mxGeometry x="80" y="510" width="120" height="30" as="geometry" />
        </mxCell>
        <mxCell id="egmOR8620CXydE9XviSe-19" value="" style="endArrow=classic;html=1;rounded=0;exitX=1;exitY=0.5;exitDx=0;exitDy=0;" parent="1" source="egmOR8620CXydE9XviSe-18" edge="1">
          <mxGeometry width="50" height="50" relative="1" as="geometry">
            <mxPoint x="390" y="645" as="sourcePoint" />
            <mxPoint x="331" y="525" as="targetPoint" />
          </mxGeometry>
        </mxCell>
        <mxCell id="egmOR8620CXydE9XviSe-20" value="&lt;b&gt;Stop talking&lt;/b&gt;" style="rounded=1;whiteSpace=wrap;html=1;" parent="1" vertex="1">
          <mxGeometry x="80" y="569.5" width="120" height="30" as="geometry" />
        </mxCell>
        <mxCell id="egmOR8620CXydE9XviSe-21" value="" style="endArrow=classic;html=1;rounded=0;exitX=1;exitY=0.5;exitDx=0;exitDy=0;fontStyle=0" parent="1" source="egmOR8620CXydE9XviSe-20" edge="1">
          <mxGeometry width="50" height="50" relative="1" as="geometry">
            <mxPoint x="390" y="704.5" as="sourcePoint" />
            <mxPoint x="331" y="584.5" as="targetPoint" />
          </mxGeometry>
        </mxCell>
        <mxCell id="egmOR8620CXydE9XviSe-22" value="&lt;b&gt;Hi&lt;/b&gt;" style="rounded=1;whiteSpace=wrap;html=1;" parent="1" vertex="1">
          <mxGeometry x="80" y="350" width="120" height="30" as="geometry" />
        </mxCell>
        <mxCell id="egmOR8620CXydE9XviSe-23" value="" style="endArrow=classic;html=1;rounded=0;exitX=1;exitY=0.5;exitDx=0;exitDy=0;" parent="1" source="egmOR8620CXydE9XviSe-22" edge="1">
          <mxGeometry width="50" height="50" relative="1" as="geometry">
            <mxPoint x="390" y="485" as="sourcePoint" />
            <mxPoint x="331" y="365" as="targetPoint" />
          </mxGeometry>
        </mxCell>
        <mxCell id="egmOR8620CXydE9XviSe-26" value="" style="endArrow=classic;html=1;rounded=0;exitX=1;exitY=0.5;exitDx=0;exitDy=0;" parent="1" target="egmOR8620CXydE9XviSe-27" edge="1">
          <mxGeometry width="50" height="50" relative="1" as="geometry">
            <mxPoint x="497" y="469.5" as="sourcePoint" />
            <mxPoint x="628" y="469.5" as="targetPoint" />
          </mxGeometry>
        </mxCell>
        <mxCell id="egmOR8620CXydE9XviSe-27" value="&lt;b&gt;NameQuery&lt;/b&gt;" style="rounded=1;whiteSpace=wrap;html=1;" parent="1" vertex="1">
          <mxGeometry x="630" y="455" width="120" height="30" as="geometry" />
        </mxCell>
        <mxCell id="egmOR8620CXydE9XviSe-29" value="" style="endArrow=classic;html=1;rounded=0;exitX=1;exitY=0.5;exitDx=0;exitDy=0;" parent="1" target="egmOR8620CXydE9XviSe-30" edge="1">
          <mxGeometry width="50" height="50" relative="1" as="geometry">
            <mxPoint x="497" y="414.5" as="sourcePoint" />
            <mxPoint x="628" y="414.5" as="targetPoint" />
          </mxGeometry>
        </mxCell>
        <mxCell id="egmOR8620CXydE9XviSe-30" value="&lt;b&gt;Courtesy&lt;/b&gt;" style="rounded=1;whiteSpace=wrap;html=1;" parent="1" vertex="1">
          <mxGeometry x="630" y="400" width="120" height="30" as="geometry" />
        </mxCell>
        <mxCell id="egmOR8620CXydE9XviSe-31" value="" style="endArrow=classic;html=1;rounded=0;exitX=1;exitY=0.5;exitDx=0;exitDy=0;" parent="1" target="egmOR8620CXydE9XviSe-32" edge="1">
          <mxGeometry width="50" height="50" relative="1" as="geometry">
            <mxPoint x="497" y="364.5" as="sourcePoint" />
            <mxPoint x="628" y="364.5" as="targetPoint" />
          </mxGeometry>
        </mxCell>
        <mxCell id="egmOR8620CXydE9XviSe-32" value="&lt;b&gt;Greeting&lt;/b&gt;" style="rounded=1;whiteSpace=wrap;html=1;" parent="1" vertex="1">
          <mxGeometry x="630" y="350" width="120" height="30" as="geometry" />
        </mxCell>
        <mxCell id="egmOR8620CXydE9XviSe-35" value="" style="endArrow=classic;html=1;rounded=0;exitX=1;exitY=0.5;exitDx=0;exitDy=0;" parent="1" target="egmOR8620CXydE9XviSe-36" edge="1">
          <mxGeometry width="50" height="50" relative="1" as="geometry">
            <mxPoint x="497" y="524.5" as="sourcePoint" />
            <mxPoint x="628" y="524.5" as="targetPoint" />
          </mxGeometry>
        </mxCell>
        <mxCell id="egmOR8620CXydE9XviSe-36" value="&lt;b&gt;Thanks&lt;/b&gt;" style="rounded=1;whiteSpace=wrap;html=1;" parent="1" vertex="1">
          <mxGeometry x="630" y="510" width="120" height="30" as="geometry" />
        </mxCell>
        <mxCell id="egmOR8620CXydE9XviSe-39" value="" style="endArrow=classic;html=1;rounded=0;exitX=1;exitY=0.5;exitDx=0;exitDy=0;" parent="1" target="egmOR8620CXydE9XviSe-40" edge="1">
          <mxGeometry width="50" height="50" relative="1" as="geometry">
            <mxPoint x="497" y="584" as="sourcePoint" />
            <mxPoint x="628" y="584" as="targetPoint" />
          </mxGeometry>
        </mxCell>
        <mxCell id="egmOR8620CXydE9XviSe-40" value="&lt;b&gt;Shutup&lt;/b&gt;" style="rounded=1;whiteSpace=wrap;html=1;" parent="1" vertex="1">
          <mxGeometry x="630" y="569.5" width="120" height="30" as="geometry" />
        </mxCell>
        <mxCell id="egmOR8620CXydE9XviSe-41" value="&lt;font style=&quot;font-size: 24px;&quot;&gt;&lt;b&gt;Intention&lt;/b&gt;&lt;/font&gt;" style="text;html=1;align=center;verticalAlign=middle;whiteSpace=wrap;rounded=0;" parent="1" vertex="1">
          <mxGeometry x="565" y="260" width="250" height="30" as="geometry" />
        </mxCell>
        <mxCell id="egmOR8620CXydE9XviSe-42" value="&lt;font style=&quot;font-size: 24px;&quot;&gt;&lt;b&gt;EntrÃ©e de l&#39;utilisateur&lt;/b&gt;&lt;/font&gt;" style="text;html=1;align=center;verticalAlign=middle;whiteSpace=wrap;rounded=0;" parent="1" vertex="1">
          <mxGeometry x="27.5" y="260" width="225" height="30" as="geometry" />
        </mxCell>
      </root>
    </mxGraphModel>
  </diagram>
</mxfile>
